<svg width="368" height="298" viewBox="0 0 368 298" fill="none" xmlns="http://www.w3.org/2000/svg">
<g clip-path="url(#clip0)">
<path d="M160.33 3.97536L53.9766 110.33C52.9198 111.387 52.2472 112.924 52.2472 114.461V287.973C52.2472 289.798 53.6884 291.239 55.5138 291.239H229.023C230.56 291.239 232.001 290.663 233.154 289.51L339.508 183.155C340.277 182.386 340.565 181.33 340.469 180.273C333.551 137.327 313.568 96.1112 280.519 62.9654C247.469 29.9156 206.254 9.83593 163.212 3.01461C162.156 2.91853 161.099 3.30283 160.33 3.97536Z" fill="#B880FF" stroke="white" stroke-width="2"/>
<path d="M105.682 87.8834L245.406 95.6511L293.871 84.1663L147.904 77.2087L105.682 87.8834Z" fill="#B880FF" stroke="black" stroke-width="1.2" stroke-miterlimit="10" stroke-linecap="round" stroke-linejoin="round"/>
<path d="M141.231 103.133L229.44 109.376V257.534L141.231 246.955V103.133Z" fill="#B880FF" stroke="black" stroke-width="1.2" stroke-miterlimit="10" stroke-linecap="round" stroke-linejoin="round"/>
<path d="M156.052 194.868L192.603 182.144L206.852 183.526L223.579 209.403L184.026 226.987L170.635 196.345L156.052 194.868Z" fill="black" stroke="black" stroke-width="1.2" stroke-miterlimit="10" stroke-linecap="round" stroke-linejoin="round"/>
<path d="M142.471 222.317L184.026 226.987L170.635 196.345L156.052 194.867L142.471 222.317Z" fill="#B880FF" stroke="white" stroke-width="1.2" stroke-miterlimit="10" stroke-linecap="round" stroke-linejoin="round"/>
<path d="M192.603 182.144L156.052 194.868L170.635 196.345L206.852 183.526L192.603 182.144Z" fill="#B880FF" stroke="white" stroke-width="1.2" stroke-miterlimit="10" stroke-linecap="round" stroke-linejoin="round"/>
<path d="M198.417 199.156L236.255 184.859L248.073 186.861L265.706 214.167L226.152 231.752L212.523 200.585L198.417 199.156Z" fill="#B880FF" stroke="white" stroke-width="1.2" stroke-miterlimit="10" stroke-linecap="round" stroke-linejoin="round"/>
<path d="M184.597 227.081L226.152 231.752L212.523 200.585L198.417 199.156L184.597 227.081Z" fill="white" stroke="white" stroke-width="1.2" stroke-miterlimit="10" stroke-linecap="round" stroke-linejoin="round"/>
<path d="M236.255 184.859L198.417 199.156L212.523 200.585L248.073 186.861L236.255 184.859Z" fill="#B880FF" stroke="white" stroke-width="1.2" stroke-miterlimit="10" stroke-linecap="round" stroke-linejoin="round"/>
<path d="M184.074 165.275L225.581 152.027L239.401 152.98L252.363 182.192L211.856 197.728L198.227 166.514L184.074 165.275Z" fill="#B880FF" stroke="white" stroke-width="1.2" stroke-miterlimit="10" stroke-linecap="round" stroke-linejoin="round"/>
<path d="M170.063 193.534L211.856 197.728L198.227 166.514L184.074 165.275L170.063 193.534Z" fill="white" stroke="white" stroke-width="1.2" stroke-miterlimit="10" stroke-linecap="round" stroke-linejoin="round"/>
<path d="M225.581 152.027L184.074 165.275L198.227 166.514L238.829 153.218L225.581 152.027Z" fill="#B880FF" stroke="white" stroke-width="1.2" stroke-miterlimit="10" stroke-linecap="round" stroke-linejoin="round"/>
<path d="M245.405 95.6508V287.985L252.458 284.078L253.649 274.976L285.149 258.058L286.912 265.111L293.87 261.251V84.166L245.405 95.6508Z" fill="black" stroke="black" stroke-width="1.2" stroke-miterlimit="10" stroke-linecap="round" stroke-linejoin="round"/>
<path d="M152.574 209.069C153.384 210.737 164.345 232.849 189.363 235.374C210.045 237.471 234.874 216.694 231.776 219.124" stroke="black" stroke-width="1.2" stroke-miterlimit="10" stroke-linecap="round" stroke-linejoin="round"/>
<path d="M107.158 87.9785L122.17 101.227L229.441 109.375V257.534L140.612 246.431V259.822L232.062 271.688L234.063 286.461L245.405 287.985V95.6509L107.158 87.9785Z" fill="white" stroke="black" stroke-width="1.2" stroke-miterlimit="10" stroke-linecap="round" stroke-linejoin="round"/>
<path d="M156.672 186.385L160.913 193.152L170.396 190.197L183.978 165.274L225.58 152.026L229.44 152.312V109.375L156.672 104.752V186.385Z" fill="black" stroke="black" stroke-width="1.2" stroke-miterlimit="10" stroke-linecap="round" stroke-linejoin="round"/>
<path d="M274.666 64.866L181.406 30.1257C143.949 41.0387 115.69 95.6987 106.921 124.768C109.828 137.968 102.299 167.8 159.484 200.682C182.692 156.84 235.446 89.17 235.446 89.17C254.603 63.627 271.235 64.5801 274.666 64.866Z" fill="white" stroke="black" stroke-width="1.2" stroke-miterlimit="10" stroke-linecap="round" stroke-linejoin="round"/>
<path d="M135.561 101.607L126.745 97.9853C130.986 88.2638 136.419 79.6383 142.233 71.4417L150.334 75.0634C144.997 83.1171 139.755 91.266 135.561 101.607Z" fill="black" stroke="black" stroke-width="1.2" stroke-miterlimit="10" stroke-linecap="round" stroke-linejoin="round"/>
<path d="M145.997 118.905L136.943 115.855C140.517 105.896 145.378 96.8888 150.62 88.3586L158.912 91.4562C154.194 99.8434 149.476 108.326 145.997 118.905Z" fill="#B880FF" stroke="black" stroke-width="1.2" stroke-miterlimit="10" stroke-linecap="round" stroke-linejoin="round"/>
<path d="M134.227 97.9385L157.053 104.42L146.76 106.707L129.366 99.94L134.227 97.9385Z" fill="#B880FF" stroke="black" stroke-width="1.2" stroke-miterlimit="10" stroke-linecap="round" stroke-linejoin="round"/>
<path d="M209.235 63.6741C198.99 56.8594 182.692 63.3881 172.827 78.2564C162.963 93.1247 163.201 110.662 173.447 117.476C183.692 124.291 199.99 117.762 209.855 102.894C219.719 88.0256 219.481 70.441 209.235 63.6741ZM184.312 101.178C180.261 98.5097 180.166 91.5521 184.074 85.7382C187.981 79.8767 194.415 77.3033 198.418 79.972C202.468 82.6407 202.564 89.5983 198.656 95.4121C194.748 101.274 188.315 103.847 184.312 101.178Z" fill="#B880FF" stroke="black" stroke-width="1.2" stroke-miterlimit="10" stroke-linecap="round" stroke-linejoin="round"/>
<path d="M184.026 85.6911C187.933 79.8296 194.367 77.2562 198.37 79.9249L209.187 63.627C198.942 56.8123 182.644 63.341 172.779 78.2093L184.026 85.6911Z" fill="white" stroke="black" stroke-width="1.2" stroke-miterlimit="10" stroke-linecap="round" stroke-linejoin="round"/>
<path d="M191.127 101.608C188.887 102.418 186.695 102.418 184.884 101.465L174.972 118.287C179.594 120.622 185.17 120.622 190.793 118.621L191.127 101.608Z" fill="black"/>
<path d="M206.519 107.279C207.711 105.897 208.807 104.42 209.855 102.847C212.905 98.2721 214.954 93.5066 216.098 88.8364L201.134 89.8848C200.706 91.7434 199.895 93.6019 198.656 95.4128C198.227 96.0323 197.799 96.6042 197.322 97.176L206.519 107.279Z" fill="black"/>
<path d="M146.76 277.883L133.131 284.03L132.416 102.132L146.665 100.083L146.76 277.883Z" fill="#B880FF" stroke="black" stroke-width="1.2" stroke-miterlimit="10" stroke-linecap="round" stroke-linejoin="round"/>
<path d="M96.3409 253.579L133.13 284.031L132.463 102.085L94.7683 89.3608L96.3409 253.579Z" fill="#B880FF" stroke="black" stroke-width="1.2" stroke-miterlimit="10" stroke-linecap="round" stroke-linejoin="round"/>
<path d="M157.244 266.017L147.38 268.256L146.76 106.707L157.053 104.419L157.244 266.017Z" fill="black" stroke="black" stroke-width="1.2" stroke-miterlimit="10" stroke-linecap="round" stroke-linejoin="round"/>
<path d="M128.985 209.64C128.985 223.555 124.029 234.802 117.977 234.802C116.5 234.802 111.496 233.086 110.161 231.847C106.158 228.083 106.921 220.124 106.921 209.64C106.921 195.725 111.877 184.479 117.929 184.479C124.029 184.526 128.985 195.773 128.985 209.64Z" fill="black" stroke="black" stroke-width="1.2" stroke-miterlimit="10" stroke-linecap="round" stroke-linejoin="round"/>
<path d="M112.926 232.896C118.689 232.896 123.362 221.63 123.362 207.734C123.362 193.838 118.689 182.572 112.926 182.572C107.162 182.572 102.489 193.838 102.489 207.734C102.489 221.63 107.162 232.896 112.926 232.896Z" fill="#B880FF" stroke="black" stroke-width="1.2" stroke-miterlimit="10" stroke-linecap="round" stroke-linejoin="round"/>
<path d="M110.114 225.509C114.009 225.509 117.167 217.893 117.167 208.497C117.167 199.101 114.009 191.484 110.114 191.484C106.219 191.484 103.061 199.101 103.061 208.497C103.061 217.893 106.219 225.509 110.114 225.509Z" fill="#B880FF" stroke="black" stroke-width="1.2" stroke-miterlimit="10" stroke-linecap="round" stroke-linejoin="round"/>
<path d="M111.401 192.008L108.923 203.207" stroke="black" stroke-width="1.2" stroke-miterlimit="10" stroke-linecap="round" stroke-linejoin="round"/>
<path d="M105.491 195.867L106.016 204.683" stroke="black" stroke-width="1.2" stroke-miterlimit="10" stroke-linecap="round" stroke-linejoin="round"/>
<path d="M113.449 222.459L109.399 215.835" stroke="black" stroke-width="1.2" stroke-miterlimit="10" stroke-linecap="round" stroke-linejoin="round"/>
<path d="M108.779 224.985L106.158 218.885" stroke="black" stroke-width="1.2" stroke-miterlimit="10" stroke-linecap="round" stroke-linejoin="round"/>
<path d="M116.404 215.502L112.353 211.499" stroke="black" stroke-width="1.2" stroke-miterlimit="10" stroke-linecap="round" stroke-linejoin="round"/>
<path d="M96.7225 202.778C99.4865 199.728 97.1991 197.965 99.963 194.963C104.776 189.673 111.448 188.767 118.119 191.293C118.167 191.293 118.834 191.96 118.882 192.008C118.93 192.246 119.311 192.199 119.406 192.77C119.835 195.439 120.693 201.158 122.504 205.161C122.599 205.399 122.742 205.685 122.885 205.923C124.219 208.544 126.03 210.164 128.508 209.259C129.223 208.973 129.7 208.258 129.7 207.496V196.202C129.7 187.576 125.125 179.57 117.738 175.186C114.784 173.423 111.877 171.707 108.16 169.372C105.348 167.609 100.44 166.846 97.1991 167.561C94.3874 168.181 92.7672 167.609 89.6696 168.562C87.5728 169.229 85.5713 169.896 83.6651 170.611C80.2816 171.85 77.1841 173.708 74.5154 176.044L34.3424 211.022L13.2791 225.366L39.2509 262.251C47.924 256.485 57.0738 250.337 67.1766 244.857C77.7083 239.138 88.0017 232.848 98.4857 227.129C107.778 221.554 133.941 199.823 127.841 191.15C127.555 190.769 127.174 190.435 126.697 190.245C125.363 189.625 123.743 189.863 122.551 190.721C115.213 195.916 99.2005 209.831 96.5319 203.111" fill="#B880FF"/>
<path d="M34.1442 210.622L12.3372 225.248L38.0049 263.519L59.812 248.894L34.1442 210.622Z" fill="black" stroke="black" stroke-width="1.2" stroke-miterlimit="10" stroke-linecap="round" stroke-linejoin="round"/>
<path d="M47.5049 249.181C47.9827 247.157 46.7297 245.13 44.7062 244.652C42.6828 244.174 40.6551 245.427 40.1773 247.451C39.6995 249.474 40.9525 251.502 42.976 251.98C44.9994 252.457 47.0271 251.204 47.5049 249.181Z" fill="white"/>
<path d="M89.7649 168.514C89.7172 168.514 89.6696 168.561 89.6219 168.561C87.5251 169.228 85.5236 169.896 83.6174 170.61C80.2339 171.849 77.1364 173.708 74.4677 176.043L49.449 197.821C64.1266 192.246 85.7619 164.701 115.927 173.851C114.688 173.088 113.449 172.326 112.258 171.516C105.539 167.322 97.342 166.178 89.7649 168.514Z" fill="white"/>
<path d="M122.504 190.627C116.309 195.011 103.966 205.924 98.0092 204.971L98.4857 205.495C98.0568 207.639 112.544 209.021 125.029 189.816C124.172 189.816 123.266 190.102 122.504 190.627Z" fill="white"/>
<path d="M119.454 192.723C119.359 192.104 118.501 191.437 118.072 191.246C101.965 184.67 96.3416 199.204 96.8182 202.493" stroke="black" stroke-width="1.2" stroke-miterlimit="10" stroke-linecap="round" stroke-linejoin="round"/>
<path d="M13.2791 225.367L34.2948 211.023L71.4655 178.713C76.7075 174.138 82.9026 170.707 89.5266 168.658L89.6696 168.61C89.7173 168.61 89.7649 168.562 89.8126 168.562C97.3897 166.227 105.586 167.371 112.258 171.565C114.736 173.137 117.214 174.662 119.692 176.235C125.935 180.143 129.7 187.005 129.7 194.391V207.496C129.7 208.259 129.223 208.974 128.508 209.26C126.03 210.213 124.219 208.545 122.885 205.876" stroke="black" stroke-width="1.2" stroke-miterlimit="10" stroke-linecap="round" stroke-linejoin="round"/>
<path d="M96.7703 202.254C97.2945 212.166 115.165 195.821 122.504 190.626C123.695 189.768 125.315 189.53 126.65 190.15C127.174 190.388 127.555 190.674 127.794 191.055C133.893 199.728 107.731 221.459 98.4382 227.035C87.9065 232.753 77.6131 239.044 67.129 244.762C57.0262 250.29 47.9242 256.437 39.2034 262.204" stroke="black" stroke-width="1.2" stroke-miterlimit="10" stroke-linecap="round" stroke-linejoin="round"/>
<path d="M146.664 100.083L105.729 87.9307L94.7683 89.3603L132.463 102.084L146.664 100.083Z" fill="#B880FF" stroke="black" stroke-width="1.2" stroke-miterlimit="10" stroke-linecap="round" stroke-linejoin="round"/>
<path d="M158.197 48.9976L176.163 55.6692L180.786 69.1079" stroke="black" stroke-width="1.2" stroke-miterlimit="10" stroke-linecap="round" stroke-linejoin="round"/>
<path d="M196.226 53.5728L207.949 58.0523" stroke="black" stroke-width="1.2" stroke-miterlimit="10" stroke-linecap="round" stroke-linejoin="round"/>
<path d="M164.44 126.96L186.504 138.445" stroke="black" stroke-width="1.2" stroke-miterlimit="10" stroke-linecap="round" stroke-linejoin="round"/>
<path d="M163.487 133.965L182.12 143.735" stroke="black" stroke-width="1.2" stroke-miterlimit="10" stroke-linecap="round" stroke-linejoin="round"/>
<path d="M164.917 142.496L178.832 149.739" stroke="black" stroke-width="1.2" stroke-miterlimit="10" stroke-linecap="round" stroke-linejoin="round"/>
<path d="M209.426 264.683C209.141 262.444 208.473 259.299 206.71 255.915C206.662 255.867 206.662 255.82 206.615 255.724C206.615 255.677 206.567 255.677 206.567 255.629C206.519 255.581 206.52 255.534 206.472 255.486C205.138 253.008 203.374 250.816 201.325 249.005C201.277 248.957 201.182 248.862 201.135 248.814C198.656 246.718 195.702 245.097 192.414 244.287C179.785 241.047 166.632 249.768 163.058 263.73C159.484 277.693 166.823 291.656 179.452 294.897C182.692 295.754 186.028 295.754 189.173 295.135C189.268 295.135 189.411 295.087 189.507 295.04C192.414 294.42 195.178 293.181 197.703 291.513C197.751 291.465 197.799 291.465 197.846 291.418C201.468 288.987 203.66 286.176 204.852 284.413C204.852 284.413 204.852 284.413 204.804 284.413C206.567 281.792 207.949 278.789 208.807 275.501C209.712 271.784 209.903 268.162 209.426 264.683Z" fill="white" stroke="#B880FF" stroke-width="1.2" stroke-miterlimit="10" stroke-linecap="round" stroke-linejoin="round"/>
<path d="M183.645 240.378C183.645 240.378 183.979 231.657 189.983 231.467C196.035 231.324 192.7 242.094 192.7 242.094" stroke="black" stroke-width="1.2" stroke-miterlimit="10" stroke-linecap="round" stroke-linejoin="round"/>
<path d="M205.737 273.702C209.317 259.731 201.988 245.784 189.368 242.55C176.748 239.317 163.615 248.021 160.035 261.993C156.456 275.964 163.784 289.912 176.404 293.145C189.024 296.379 202.157 287.674 205.737 273.702Z" fill="#B880FF" stroke="white" stroke-width="1.2" stroke-miterlimit="10" stroke-linecap="round" stroke-linejoin="round"/>
<path d="M180.071 265.54L163.963 253.15C163.963 253.15 168.586 243.286 179.499 242.333L180.071 265.54Z" fill="#B880FF" stroke="white" stroke-width="1.2" stroke-miterlimit="10" stroke-linecap="round" stroke-linejoin="round"/>
<path d="M159.484 271.64L180.071 265.54" stroke="white" stroke-width="1.2" stroke-miterlimit="10" stroke-linecap="round" stroke-linejoin="round"/>
<path d="M167.966 288.796L180.071 265.54" stroke="white" stroke-width="1.2" stroke-miterlimit="10" stroke-linecap="round" stroke-linejoin="round"/>
<path d="M198.084 247.098L180.07 265.54" stroke="black" stroke-width="1.2" stroke-miterlimit="10" stroke-linecap="round" stroke-linejoin="round"/>
<path d="M206.519 264.063L180.07 265.541" stroke="black" stroke-width="1.2" stroke-miterlimit="10" stroke-linecap="round" stroke-linejoin="round"/>
<path d="M180.07 265.541L198.084 247.051C199.609 248.385 201.753 250.625 203.517 253.865C205.756 257.964 206.328 261.824 206.519 264.016C197.703 264.588 188.887 265.064 180.07 265.541Z" fill="white" stroke="white" stroke-width="1.2" stroke-miterlimit="10" stroke-linecap="round" stroke-linejoin="round"/>
<path d="M180.07 265.54L186.123 293.323C188.172 292.846 191.412 291.893 194.796 289.606C198.418 287.175 200.61 284.364 201.801 282.6C194.557 276.93 187.314 271.259 180.07 265.54Z" fill="white" stroke="white" stroke-width="1.2" stroke-miterlimit="10" stroke-linecap="round" stroke-linejoin="round"/>
<path d="M192.623 268.784C194.589 261.11 190.561 253.449 183.627 251.672C176.692 249.895 169.476 254.676 167.51 262.35C165.544 270.024 169.572 277.685 176.506 279.462C183.441 281.239 190.657 276.458 192.623 268.784Z" fill="white" stroke="#B880FF" stroke-width="1.2" stroke-miterlimit="10" stroke-linecap="round" stroke-linejoin="round"/>
<path d="M176.211 294.454C188.839 297.695 202.087 288.128 205.757 273.689C209.474 259.25 201.992 244.524 189.363 241.284" stroke="#B880FF" stroke-width="1.2" stroke-miterlimit="10" stroke-linecap="round" stroke-linejoin="round"/>
<path d="M192.623 268.784C194.589 261.11 190.562 253.449 183.627 251.672C176.692 249.895 169.477 254.676 167.51 262.35C165.544 270.024 169.572 277.685 176.506 279.462C183.441 281.239 190.657 276.458 192.623 268.784Z" fill="white"/>
<path d="M192.623 268.784C194.589 261.11 190.562 253.449 183.627 251.672C176.692 249.895 169.477 254.676 167.51 262.35C165.544 270.024 169.572 277.685 176.506 279.462C183.441 281.239 190.657 276.458 192.623 268.784Z" stroke="#B880FF" stroke-width="1.2" stroke-miterlimit="10" stroke-linecap="round" stroke-linejoin="round"/>
<path d="M117.406 110.471V158.126" stroke="#B880FF" stroke-width="1.2" stroke-miterlimit="10" stroke-linecap="round" stroke-linejoin="round"/>
<path d="M111.496 107.708V154.505" stroke="#B880FF" stroke-width="1.2" stroke-miterlimit="10" stroke-linecap="round" stroke-linejoin="round"/>
<path d="M105.586 125.912L124.41 126.15" stroke="#B880FF" stroke-width="1.2" stroke-miterlimit="10" stroke-linecap="round" stroke-linejoin="round"/>
<path d="M105.158 136.063L124.22 139.685" stroke="#B880FF" stroke-width="1.2" stroke-miterlimit="10" stroke-linecap="round" stroke-linejoin="round"/>
<path d="M152.098 166.942C153.835 166.942 155.243 165.385 155.243 163.463C155.243 161.542 153.835 159.985 152.098 159.985C150.361 159.985 148.953 161.542 148.953 163.463C148.953 165.385 150.361 166.942 152.098 166.942Z" fill="#B880FF" stroke="black" stroke-width="1.2" stroke-miterlimit="10" stroke-linecap="round" stroke-linejoin="round"/>
<path d="M152.098 213.55C153.835 213.55 155.243 211.992 155.243 210.071C155.243 208.15 153.835 206.592 152.098 206.592C150.361 206.592 148.953 208.15 148.953 210.071C148.953 211.992 150.361 213.55 152.098 213.55Z" fill="#B880FF" stroke="black" stroke-width="1.2" stroke-miterlimit="10" stroke-linecap="round" stroke-linejoin="round"/>
<path d="M152.098 190.294C153.835 190.294 155.243 188.736 155.243 186.815C155.243 184.893 153.835 183.336 152.098 183.336C150.361 183.336 148.953 184.893 148.953 186.815C148.953 188.736 150.361 190.294 152.098 190.294Z" fill="#B880FF" stroke="black" stroke-width="1.2" stroke-miterlimit="10" stroke-linecap="round" stroke-linejoin="round"/>
<path d="M107.636 177.379C116.213 176.568 122.504 178.093 125.459 181.525" stroke="black" stroke-width="1.2" stroke-miterlimit="10" stroke-linecap="round" stroke-linejoin="round"/>
<path d="M101.584 171.041C105.587 170.279 111.067 170.612 114.403 172.9" stroke="black" stroke-width="1.2" stroke-miterlimit="10" stroke-linecap="round" stroke-linejoin="round"/>
<path d="M102.489 111.521L124.029 120.67" stroke="white" stroke-width="1.2" stroke-miterlimit="10" stroke-linecap="round" stroke-linejoin="round"/>
<path d="M102.299 120.956L123.648 131.44" stroke="white" stroke-width="1.2" stroke-miterlimit="10" stroke-linecap="round" stroke-linejoin="round"/>
<path d="M102.251 130.438L123.409 141.923" stroke="white" stroke-width="1.2" stroke-miterlimit="10" stroke-linecap="round" stroke-linejoin="round"/>
<path d="M101.441 104.991V139.445" stroke="#B880FF" stroke-width="1.2" stroke-miterlimit="10" stroke-linecap="round" stroke-linejoin="round"/>
<path d="M124.744 116.19V150.644" stroke="#B880FF" stroke-width="1.2" stroke-miterlimit="10" stroke-linecap="round" stroke-linejoin="round"/>
<path d="M116.785 111.854V146.308" stroke="#B880FF" stroke-width="1.2" stroke-miterlimit="10" stroke-linecap="round" stroke-linejoin="round"/>
<path d="M109.113 109.137V143.639" stroke="#B880FF" stroke-width="1.2" stroke-miterlimit="10" stroke-linecap="round" stroke-linejoin="round"/>
</g>
<defs>
<clipPath id="clip0">
<rect width="368" height="297.99" fill="white"/>
</clipPath>
</defs>
</svg>
